<?xml version="1.0" standalone="no"?>
<!DOCTYPE svg PUBLIC "-//W3C//DTD SVG 20010904//EN"
 "http://www.w3.org/TR/2001/REC-SVG-20010904/DTD/svg10.dtd">
<svg version="1.0" xmlns="http://www.w3.org/2000/svg"
 width="1520.000000pt" height="1520.000000pt" viewBox="0 0 1520.000000 1520.000000"
 preserveAspectRatio="xMidYMid meet">
<metadata>
Created by potrace 1.11, written by Peter Selinger 2001-2013
</metadata>
<g transform="translate(0.000000,1520.000000) scale(0.100000,-0.100000)"
fill="#000000" stroke="none">
<path d="M11651 15075 c-2 -5 -5 -14 -6 -20 -2 -17 -36 -78 -64 -115 -43 -57
-152 -160 -170 -160 -5 0 -11 -4 -13 -9 -6 -16 -159 -106 -278 -163 -131 -63
-331 -140 -500 -193 -63 -20 -122 -39 -130 -42 -8 -3 -19 -7 -25 -8 -5 -2 -53
-15 -105 -30 -52 -15 -102 -29 -110 -31 -111 -27 -342 -87 -365 -94 -16 -5
-43 -12 -60 -14 -38 -7 -49 -10 -165 -36 -107 -24 -124 -28 -160 -35 -14 -3
-34 -7 -45 -9 -102 -22 -204 -44 -240 -51 -11 -2 -31 -6 -45 -9 -14 -3 -38 -8
-55 -11 -16 -2 -41 -6 -55 -9 -69 -15 -156 -32 -220 -42 -19 -3 -55 -10 -80
-15 -25 -6 -94 -19 -155 -30 -60 -10 -121 -21 -135 -24 -14 -3 -38 -7 -55 -10
-16 -3 -41 -7 -55 -10 -14 -3 -41 -7 -60 -10 -19 -3 -42 -8 -50 -10 -8 -2 -35
-7 -60 -10 -25 -3 -52 -8 -61 -11 -10 -3 -30 -6 -45 -9 -33 -4 -67 -10 -179
-30 -79 -14 -122 -21 -180 -31 -16 -2 -52 -9 -80 -14 -49 -9 -71 -13 -149 -25
-21 -4 -48 -9 -60 -11 -11 -2 -34 -7 -51 -9 -16 -3 -82 -15 -145 -26 -63 -12
-126 -23 -140 -24 -14 -2 -50 -9 -80 -15 -30 -6 -71 -13 -90 -15 -19 -3 -46
-7 -60 -11 -14 -4 -32 -8 -40 -9 -8 -1 -31 -5 -50 -8 -19 -4 -53 -9 -75 -12
-22 -4 -56 -10 -75 -15 -19 -5 -55 -12 -80 -15 -25 -4 -64 -11 -88 -16 -23 -5
-59 -12 -80 -15 -49 -8 -67 -12 -67 -15 0 -1 -13 -3 -30 -4 -16 -2 -41 -6 -55
-9 -14 -3 -72 -15 -130 -26 -58 -12 -116 -23 -130 -26 -14 -3 -33 -6 -42 -7
-10 -1 -18 -4 -18 -8 0 -4 -10 -7 -22 -7 -34 0 -96 -10 -106 -16 -5 -3 -19 -7
-33 -9 -44 -8 -219 -47 -324 -72 -38 -9 -77 -18 -85 -20 -8 -2 -89 -22 -180
-45 -91 -24 -173 -43 -182 -43 -10 -1 -18 -6 -18 -11 0 -5 -2 -7 -6 -4 -3 3
-55 -10 -117 -29 -62 -19 -121 -36 -132 -38 -11 -1 -37 -10 -59 -19 -21 -9
-42 -14 -46 -11 -5 3 -10 2 -12 -3 -2 -6 -69 -30 -128 -47 -3 -1 -14 -5 -25
-10 -11 -4 -60 -23 -110 -42 -49 -19 -117 -47 -150 -63 -98 -45 -199 -94 -210
-102 -5 -5 -51 -35 -102 -68 -114 -74 -219 -179 -267 -268 -19 -37 -36 -61
-36 -54 0 6 -3 12 -7 12 -5 0 -7 -336 -6 -748 2 -855 2 -843 12 -819 5 15 9
11 20 -20 8 -21 17 -40 20 -43 4 -3 17 -21 29 -40 18 -30 122 -135 175 -177
92 -73 370 -215 535 -274 32 -11 66 -24 77 -29 34 -15 100 -34 108 -32 4 1 7
-2 7 -8 0 -5 9 -10 19 -10 11 0 23 -5 26 -10 4 -6 10 -8 14 -6 4 3 55 -10 112
-29 87 -28 150 -47 204 -61 109 -29 455 -117 470 -120 46 -9 65 -13 155 -34
231 -52 302 -68 340 -74 14 -2 61 -12 105 -21 44 -9 91 -19 105 -21 14 -3 60
-11 103 -20 42 -8 90 -17 105 -20 15 -2 62 -11 105 -20 42 -8 90 -17 105 -20
37 -6 122 -22 152 -28 13 -3 42 -8 65 -11 22 -3 47 -8 55 -10 15 -4 60 -13
110 -20 14 -2 39 -7 55 -10 51 -9 188 -34 225 -40 19 -3 42 -8 50 -10 8 -2 33
-7 55 -10 23 -3 52 -8 65 -11 14 -3 41 -7 60 -10 19 -2 49 -7 65 -11 17 -3 39
-7 50 -9 66 -10 89 -14 170 -29 50 -10 99 -18 110 -20 11 -2 36 -6 55 -9 84
-16 156 -28 175 -31 11 -1 48 -8 83 -14 35 -7 78 -14 95 -17 18 -3 41 -7 52
-9 11 -2 72 -13 135 -24 63 -12 151 -28 195 -36 44 -8 91 -17 105 -19 14 -3
50 -10 80 -15 80 -16 90 -18 140 -26 64 -10 79 -13 98 -19 9 -3 33 -8 52 -11
19 -3 102 -20 185 -36 82 -17 161 -33 175 -36 14 -2 45 -9 70 -15 25 -6 54
-12 65 -14 11 -1 31 -6 45 -9 14 -3 39 -8 55 -11 17 -3 41 -9 55 -14 14 -5 39
-11 55 -14 17 -2 30 -5 30 -6 0 -2 18 -6 64 -15 19 -3 37 -8 41 -10 4 -2 21
-7 38 -10 17 -3 84 -19 149 -36 65 -17 143 -38 173 -46 75 -19 76 -19 150 -42
182 -55 234 -71 238 -75 4 -4 -23 -14 -60 -22 -5 -1 -9 -2 -10 -4 -2 -1 -10
-3 -18 -5 -8 -3 -60 -18 -115 -35 -91 -28 -412 -116 -460 -126 -11 -2 -33 -7
-50 -11 -16 -4 -34 -8 -40 -9 -5 -1 -12 -3 -15 -4 -6 -2 -26 -7 -58 -14 -13
-3 -31 -7 -40 -10 -9 -3 -33 -8 -52 -12 -44 -8 -64 -12 -67 -14 -4 -3 -12 -5
-63 -14 -25 -5 -54 -10 -65 -13 -51 -12 -162 -35 -180 -38 -11 -2 -20 -4 -20
-5 0 -1 -11 -3 -25 -6 -14 -2 -59 -11 -100 -20 -41 -8 -88 -18 -105 -20 -16
-3 -41 -7 -55 -11 -14 -3 -32 -7 -40 -8 -25 -4 -81 -15 -160 -30 -101 -20
-112 -22 -151 -29 -19 -3 -59 -10 -89 -16 -30 -6 -66 -13 -80 -15 -49 -7 -95
-16 -111 -21 -15 -4 -36 -8 -109 -19 -14 -2 -104 -18 -200 -36 -96 -17 -185
-32 -197 -32 -13 -1 -23 -5 -23 -10 0 -4 -4 -6 -9 -3 -4 3 -42 -1 -82 -8 -41
-8 -87 -17 -104 -19 -27 -4 -168 -29 -235 -41 -14 -2 -27 -5 -30 -6 -3 -2 -8
-2 -12 -1 -4 0 -39 -6 -78 -14 -38 -8 -83 -16 -100 -17 -16 -1 -30 -5 -30 -8
0 -3 -10 -6 -22 -6 -44 -3 -153 -20 -153 -24 0 -1 -11 -3 -25 -4 -14 -2 -43
-6 -65 -11 -22 -4 -49 -9 -60 -11 -24 -4 -62 -11 -130 -24 -27 -6 -63 -12 -80
-14 -16 -3 -79 -14 -140 -27 -60 -12 -123 -23 -139 -25 -16 -2 -45 -8 -65 -13
-20 -5 -52 -12 -71 -15 -19 -3 -46 -8 -60 -11 -14 -3 -41 -8 -60 -11 -19 -3
-38 -8 -41 -9 -3 -2 -28 -7 -55 -11 -27 -3 -53 -9 -59 -12 -5 -3 -20 -7 -33
-8 -14 -2 -48 -8 -76 -14 -28 -6 -62 -14 -76 -16 -14 -3 -41 -9 -60 -14 -19
-5 -46 -11 -60 -14 -44 -9 -74 -15 -121 -26 -26 -6 -55 -13 -65 -15 -11 -2
-19 -4 -19 -5 0 -1 -11 -4 -25 -6 -20 -4 -184 -44 -240 -58 -13 -4 -45 -12
-160 -41 -8 -2 -15 -4 -15 -5 0 -1 -7 -3 -15 -5 -8 -2 -40 -11 -70 -20 -30 -9
-62 -18 -71 -20 -36 -8 -229 -69 -309 -97 -47 -16 -89 -30 -95 -31 -5 -1 -12
-5 -15 -9 -3 -4 -15 -9 -25 -11 -11 -2 -33 -9 -48 -15 -16 -7 -52 -21 -80 -33
-129 -53 -387 -188 -417 -219 -3 -3 -27 -23 -55 -45 -88 -70 -194 -193 -178
-209 3 -3 1 -6 -5 -6 -6 0 -14 -15 -18 -32 -6 -31 -7 -32 -15 -10 -5 12 -10
22 -11 22 -2 0 -3 -357 -3 -794 0 -581 3 -792 11 -789 6 2 18 -13 27 -34 15
-38 23 -49 94 -133 39 -47 113 -110 167 -144 17 -10 33 -21 36 -25 15 -18 294
-157 395 -196 39 -15 84 -33 100 -40 42 -18 337 -117 355 -120 8 -1 40 -10 70
-19 50 -16 184 -53 220 -61 8 -2 69 -18 134 -35 66 -18 127 -33 135 -35 9 -2
39 -9 66 -15 28 -6 57 -13 65 -15 17 -4 93 -21 155 -36 22 -5 51 -11 65 -14
14 -2 52 -11 85 -19 33 -8 76 -17 95 -20 19 -3 67 -13 105 -21 39 -9 77 -16
85 -17 8 0 22 -2 30 -5 21 -9 41 -12 145 -29 11 -2 31 -5 45 -8 96 -21 178
-37 265 -51 11 -2 43 -9 70 -15 28 -6 60 -11 72 -11 12 0 25 -4 28 -9 4 -6 10
-8 15 -5 5 3 30 0 57 -6 26 -5 62 -12 78 -14 25 -4 98 -16 115 -20 3 -1 25 -5
50 -9 25 -5 54 -10 65 -13 11 -2 36 -6 55 -9 19 -2 49 -7 65 -11 17 -4 35 -7
40 -8 13 -1 105 -17 130 -21 11 -3 35 -7 54 -10 18 -3 41 -7 50 -9 9 -1 36 -6
61 -11 25 -4 47 -8 50 -9 13 -3 88 -16 115 -20 34 -5 126 -21 200 -36 28 -5
57 -10 65 -10 8 -1 45 -8 83 -15 37 -8 86 -16 110 -19 23 -3 49 -7 57 -10 8
-2 31 -6 50 -9 19 -3 45 -8 56 -10 12 -2 37 -7 55 -10 19 -3 59 -10 89 -16 30
-6 64 -13 75 -15 38 -6 153 -27 330 -61 44 -9 94 -18 110 -20 17 -3 41 -7 55
-11 52 -13 99 -22 158 -30 23 -3 42 -8 42 -12 0 -3 13 -7 28 -8 26 -2 49 -6
97 -16 36 -9 179 -39 205 -43 14 -3 41 -9 60 -14 19 -5 46 -11 60 -14 14 -3
52 -12 86 -20 34 -8 72 -17 85 -20 13 -3 44 -11 69 -17 25 -6 54 -13 65 -14
11 -2 20 -4 20 -5 0 -2 11 -5 95 -25 69 -18 232 -63 315 -89 28 -9 51 -16 53
-16 14 1 142 -44 142 -49 0 -6 -74 -30 -195 -65 -5 -2 -17 -6 -25 -9 -23 -9
-201 -57 -233 -63 -16 -3 -46 -12 -67 -19 -21 -7 -41 -11 -44 -8 -3 3 -12 0
-21 -7 -8 -7 -15 -10 -15 -7 0 3 -24 -1 -52 -10 -29 -9 -64 -17 -78 -18 -14
-2 -25 -4 -25 -5 0 -1 -7 -3 -15 -5 -8 -1 -33 -8 -55 -14 -22 -5 -58 -13 -80
-17 -22 -3 -44 -9 -50 -12 -5 -3 -18 -7 -30 -8 -11 -2 -114 -23 -230 -47 -115
-25 -226 -48 -245 -51 -19 -3 -66 -12 -105 -20 -38 -8 -90 -17 -115 -21 -24
-4 -47 -8 -50 -10 -3 -2 -21 -6 -40 -9 -19 -3 -46 -8 -60 -11 -14 -3 -51 -9
-82 -15 -56 -10 -80 -14 -133 -25 -14 -3 -36 -7 -50 -9 -14 -3 -52 -10 -85
-16 -63 -12 -75 -14 -168 -30 -54 -9 -80 -13 -147 -25 -16 -3 -52 -10 -80 -15
-27 -6 -66 -12 -85 -15 -19 -3 -46 -7 -60 -10 -14 -3 -45 -8 -70 -11 -25 -3
-48 -8 -52 -11 -5 -2 -27 -6 -50 -9 -24 -2 -77 -11 -118 -19 -41 -8 -91 -17
-110 -20 -19 -3 -48 -8 -65 -11 -16 -3 -44 -7 -60 -9 -17 -2 -49 -8 -70 -13
-22 -6 -47 -10 -55 -10 -8 0 -51 -7 -95 -16 -44 -9 -100 -19 -125 -22 -25 -3
-48 -8 -51 -10 -4 -2 -24 -6 -45 -9 -22 -3 -50 -8 -64 -11 -14 -2 -38 -7 -55
-10 -16 -3 -40 -7 -53 -9 -115 -20 -160 -29 -247 -45 -55 -11 -111 -21 -125
-24 -14 -2 -88 -16 -165 -31 -77 -15 -149 -29 -160 -30 -11 -2 -20 -4 -20 -5
0 -2 -9 -4 -20 -5 -29 -4 -62 -11 -225 -45 -80 -17 -156 -33 -170 -36 -14 -3
-41 -9 -60 -14 -19 -5 -46 -11 -60 -14 -14 -3 -35 -7 -47 -10 -13 -4 -33 -8
-45 -11 -13 -2 -36 -8 -53 -12 -16 -4 -32 -7 -35 -8 -3 0 -28 -7 -56 -14 -29
-7 -60 -14 -70 -16 -11 -2 -19 -4 -19 -5 0 -1 -7 -3 -15 -5 -8 -1 -35 -8 -60
-15 -25 -7 -49 -13 -55 -14 -5 -1 -16 -5 -23 -9 -6 -5 -12 -6 -12 -3 0 2 -30
-4 -67 -15 -38 -11 -75 -22 -83 -24 -16 -4 -247 -73 -268 -80 -7 -2 -13 -4
-15 -4 -6 -1 -212 -74 -226 -81 -9 -5 -43 -19 -76 -31 -33 -12 -85 -34 -115
-48 -30 -14 -57 -25 -60 -26 -3 -1 -23 -10 -45 -22 -22 -11 -56 -28 -75 -38
-86 -44 -239 -154 -300 -217 -63 -64 -125 -160 -136 -210 -14 -65 -16 -160
-17 -826 -1 -478 1 -721 8 -718 6 2 9 8 8 15 -9 37 73 176 145 248 155 156
449 305 890 452 85 28 164 53 175 55 12 3 23 5 25 7 2 2 7 3 47 13 17 4 41 12
53 17 13 5 39 12 58 15 19 3 50 12 69 20 19 8 38 14 42 13 5 -1 10 0 13 1 3 1
13 3 22 5 9 2 32 8 50 13 47 14 220 55 236 55 6 0 12 3 12 6 0 3 10 6 23 7 12
1 54 9 92 18 39 9 81 19 94 22 13 3 51 12 85 20 34 9 68 16 76 16 8 0 29 4 45
8 17 5 44 11 60 14 17 3 41 7 55 10 14 3 36 8 50 11 14 3 39 7 57 9 18 3 40 7
50 10 10 3 33 8 52 11 19 3 37 7 40 9 6 4 96 18 119 19 6 0 12 3 12 6 0 3 10
7 23 8 12 1 33 4 47 6 14 3 41 7 60 11 19 3 46 8 60 11 14 2 36 7 50 10 14 2
41 7 60 10 19 3 43 8 52 11 9 3 32 7 50 9 18 2 44 6 58 9 14 3 39 8 55 11 17
3 44 7 60 10 17 3 45 8 64 11 18 3 43 8 55 10 11 2 37 7 56 10 19 4 44 8 55
10 11 2 36 6 55 9 19 3 58 9 85 15 84 16 109 21 138 26 122 19 197 32 232 39
47 9 148 27 170 30 11 1 90 15 175 30 85 15 165 29 177 30 12 2 34 6 50 9 34
8 55 12 113 21 25 4 54 9 65 12 11 2 31 6 45 8 14 2 63 11 110 20 47 9 99 18
115 21 17 3 80 14 140 26 61 11 121 22 135 24 14 3 42 9 63 15 20 5 42 7 47 4
6 -3 10 -2 10 4 0 5 8 8 18 6 9 -1 27 1 39 6 12 4 39 10 60 13 41 5 59 9 168
32 38 9 79 17 90 20 11 2 29 6 40 8 11 3 64 14 118 25 54 12 124 27 155 35 32
8 72 18 91 21 19 3 37 8 41 10 4 2 21 7 40 10 18 3 94 22 169 41 75 20 143 37
151 38 8 2 35 9 60 16 25 7 50 14 56 16 23 4 195 57 299 92 61 20 112 37 115
38 3 0 12 4 20 7 8 4 53 20 100 37 46 17 98 37 115 45 16 7 70 32 118 54 49
23 90 41 91 41 6 0 164 98 209 128 63 44 166 146 202 202 16 25 30 47 30 50 0
3 6 19 13 35 10 23 12 214 9 875 -2 465 -5 851 -7 858 -2 6 -7 12 -12 12 -4 0
-7 4 -6 8 2 5 -12 32 -30 61 -82 127 -231 240 -464 355 -162 78 -245 111 -458
183 -91 30 -172 57 -180 60 -8 3 -19 7 -25 8 -5 2 -36 10 -67 20 -32 9 -59 16
-60 15 -2 -1 -15 3 -31 9 -15 6 -38 13 -50 15 -12 3 -56 15 -97 26 -95 26
-110 30 -140 36 -14 2 -31 7 -38 9 -13 5 -288 70 -332 79 -14 3 -39 9 -57 15
-17 5 -34 7 -36 4 -3 -2 -14 0 -24 5 -10 5 -34 12 -53 15 -19 3 -46 8 -60 11
-14 3 -47 10 -75 16 -27 6 -61 13 -75 16 -14 3 -34 7 -46 9 -19 3 -89 17 -154
31 -14 3 -36 7 -50 10 -14 2 -48 9 -76 15 -28 5 -64 12 -80 14 -16 3 -60 12
-99 20 -38 8 -86 17 -105 19 -19 3 -44 7 -55 9 -19 4 -77 15 -122 23 -13 2
-35 6 -50 10 -16 3 -41 7 -58 10 -16 3 -52 9 -80 14 -27 5 -63 12 -80 15 -16
3 -39 6 -50 9 -30 5 -146 26 -175 30 -14 3 -25 5 -25 6 0 1 -9 3 -20 4 -22 3
-158 26 -190 32 -55 11 -83 16 -115 19 -19 2 -37 5 -40 6 -3 1 -9 3 -15 4 -5
2 -12 4 -15 5 -3 1 -16 3 -30 5 -14 1 -41 6 -60 10 -19 4 -48 8 -65 10 -16 2
-41 7 -55 10 -28 6 -85 16 -115 20 -11 1 -31 5 -45 8 -14 4 -41 9 -60 12 -19
2 -46 7 -60 10 -38 8 -82 16 -110 20 -36 5 -86 14 -165 30 -38 7 -86 16 -105
19 -19 3 -44 7 -55 9 -62 12 -102 20 -120 23 -11 1 -29 5 -40 7 -11 3 -40 8
-65 13 -25 4 -47 8 -50 9 -3 1 -25 5 -50 9 -25 5 -54 10 -65 13 -11 2 -32 6
-46 7 -14 2 -30 5 -35 8 -5 3 -31 9 -58 12 -27 4 -52 9 -55 11 -3 1 -22 6 -41
9 -19 3 -49 10 -67 15 -17 5 -34 7 -37 4 -2 -3 -10 -1 -17 3 -7 4 -24 9 -37
10 -14 2 -63 12 -111 23 -47 11 -97 22 -111 25 -14 3 -65 15 -115 26 -49 11
-101 23 -115 26 -73 16 -367 91 -445 113 -16 5 -42 12 -57 15 -16 4 -28 11
-28 16 0 6 3 9 7 9 5 -1 11 0 16 1 13 5 22 6 62 15 22 4 47 11 56 16 9 4 27
10 40 12 13 3 44 10 69 17 25 7 52 14 60 16 8 2 40 10 70 18 30 7 107 26 170
40 63 15 133 31 155 36 22 6 51 12 65 14 14 3 25 5 25 6 0 1 9 3 20 5 11 2 84
18 161 34 77 17 154 32 170 35 16 3 40 8 54 11 14 3 50 10 80 16 30 5 98 19
150 29 52 11 112 22 134 26 21 3 48 8 60 10 132 26 316 60 383 70 24 3 46 10
48 15 3 4 11 6 19 3 7 -3 34 0 59 6 26 5 64 13 85 16 20 2 60 9 87 14 75 14
106 20 145 26 19 2 69 11 110 19 41 8 90 17 108 20 71 11 99 16 152 25 30 6
66 12 80 15 14 3 45 8 68 10 24 3 47 7 52 10 4 3 23 7 41 9 19 3 50 8 69 11
66 12 95 17 120 20 14 2 25 4 25 5 0 1 14 4 30 6 17 3 55 10 85 16 30 6 69 12
85 13 17 2 59 10 95 18 36 8 72 15 80 15 8 0 26 3 40 6 35 8 70 15 105 21 17
3 41 7 55 10 14 3 41 8 60 11 19 3 65 12 102 20 37 7 82 16 100 19 18 3 53 10
78 15 25 5 56 12 70 14 14 2 72 14 130 26 58 12 116 24 130 26 14 3 41 9 60
14 39 10 82 19 122 25 15 2 46 9 70 16 24 6 54 13 68 16 14 2 43 9 65 15 22 5
51 12 64 15 14 2 28 6 32 8 4 3 24 7 45 10 22 3 46 8 54 11 8 3 74 21 145 39
72 19 155 41 185 50 30 8 80 23 110 31 30 9 75 23 100 31 25 8 52 16 60 18 33
7 314 109 385 140 137 59 259 118 263 127 2 5 8 8 14 8 12 0 165 99 203 131
96 83 169 176 193 248 9 25 12 262 12 870 l0 836 -23 45 c-59 114 -99 159
-252 278 -59 46 -278 161 -405 212 -30 12 -70 29 -89 37 -18 8 -39 16 -45 18
-6 1 -24 8 -41 14 -29 12 -254 89 -285 97 -8 2 -62 18 -120 34 -134 40 -113
34 -270 75 -74 20 -146 38 -160 41 -14 3 -50 11 -80 19 -30 8 -66 16 -80 19
-14 3 -56 13 -95 22 -38 8 -77 17 -85 19 -8 2 -58 12 -110 23 -52 11 -149 32
-215 46 -113 24 -163 34 -210 42 -11 1 -29 5 -40 7 -11 3 -58 12 -105 21 -47
9 -96 18 -110 21 -14 2 -63 12 -110 20 -47 8 -105 19 -130 25 -25 5 -63 12
-85 15 -22 4 -51 9 -65 11 -14 3 -47 9 -75 14 -71 14 -84 17 -135 24 -25 4
-65 11 -90 16 -25 5 -58 12 -75 14 -16 3 -43 7 -60 10 -16 4 -46 9 -65 12 -19
3 -46 8 -60 11 -33 6 -57 11 -100 17 -19 3 -46 8 -60 11 -14 3 -41 7 -60 10
-19 3 -73 12 -120 20 -47 9 -98 18 -115 20 -16 3 -41 7 -55 10 -26 6 -60 12
-117 19 -18 3 -36 7 -40 9 -4 3 -30 8 -58 11 -47 5 -66 9 -125 21 -14 3 -41 8
-60 11 -74 11 -96 15 -135 24 -22 5 -60 11 -85 15 -25 4 -63 10 -85 15 -22 5
-56 12 -75 15 -39 6 -194 35 -225 41 -11 2 -33 7 -50 10 -16 3 -48 9 -70 14
-22 5 -56 11 -75 14 -40 6 -63 11 -140 28 -30 6 -64 13 -75 14 -11 1 -50 9
-86 17 -36 9 -79 18 -95 21 -16 3 -47 10 -69 15 -22 5 -57 12 -79 15 -21 4
-42 8 -46 11 -4 3 -25 7 -46 11 -20 3 -48 10 -61 15 -13 5 -27 8 -31 7 -4 -2
-27 3 -52 10 -87 23 -375 94 -390 96 -8 1 -22 5 -30 8 -8 3 -41 14 -73 23 -31
9 -54 21 -51 27 3 5 8 7 11 4 3 -2 16 -1 29 4 14 6 37 12 52 15 45 10 47 10
60 18 6 5 12 6 12 3 0 -3 11 -1 26 4 14 6 37 12 52 15 15 3 52 12 82 20 73 21
91 25 115 29 11 2 76 17 145 34 69 17 139 33 155 35 17 3 39 8 50 11 40 9 111
25 135 30 14 3 36 7 50 10 14 3 36 8 50 11 14 3 36 8 50 11 14 3 34 7 45 8 11
1 45 8 75 14 30 7 66 14 80 16 14 3 25 5 25 6 0 1 9 3 20 4 11 2 34 6 50 10
17 3 44 8 62 10 18 3 40 7 50 10 10 3 34 8 53 11 19 3 42 8 50 10 8 2 31 6 50
9 19 3 45 8 56 10 12 2 39 7 60 10 22 4 46 8 54 11 8 2 31 7 50 10 19 2 73 12
120 20 47 9 96 18 110 20 32 6 60 11 135 24 33 6 71 13 85 16 13 3 42 7 65 11
22 3 58 9 80 14 22 5 60 11 85 15 25 3 52 8 60 10 8 2 31 6 50 9 19 3 60 10
90 16 30 6 73 13 94 16 21 2 42 6 45 8 3 2 30 7 60 11 30 4 62 9 73 11 10 2
26 6 36 8 9 2 37 7 62 10 25 3 56 8 70 11 14 3 36 8 50 10 14 2 39 7 55 10
102 19 204 37 226 40 14 2 64 11 110 20 46 9 97 18 113 20 15 3 35 6 45 9 18
6 99 18 119 19 6 0 12 4 12 9 0 5 4 7 9 3 5 -3 31 0 58 6 26 6 62 12 78 15 25
3 499 97 560 111 11 2 31 6 45 9 14 3 45 10 70 15 25 6 54 13 65 15 42 8 61
13 105 23 25 7 56 14 70 17 14 3 43 10 65 15 22 5 49 12 60 14 30 7 52 13 140
35 44 11 89 22 99 25 42 10 277 78 371 107 55 18 102 32 105 33 3 1 12 4 20 7
8 3 44 16 80 28 36 12 74 26 85 30 11 5 70 29 132 54 143 58 333 155 372 190
10 9 21 16 25 16 26 0 177 144 225 214 65 93 61 47 59 871 -2 413 -5 746 -7
740z"/>
</g>
</svg>
