<?xml version="1.0" encoding="UTF-8" standalone="no"?>
<!-- Created with Inkscape (http://www.inkscape.org/) -->
<svg
   xmlns:dc="http://purl.org/dc/elements/1.1/"
   xmlns:cc="http://creativecommons.org/ns#"
   xmlns:rdf="http://www.w3.org/1999/02/22-rdf-syntax-ns#"
   xmlns:svg="http://www.w3.org/2000/svg"
   xmlns="http://www.w3.org/2000/svg"
   xmlns:sodipodi="http://sodipodi.sourceforge.net/DTD/sodipodi-0.dtd"
   xmlns:inkscape="http://www.inkscape.org/namespaces/inkscape"
   version="1.0"
   width="397.25601"
   height="277.474"
   id="svg13998"
   sodipodi:version="0.32"
   inkscape:version="0.46"
   sodipodi:docname="shim_good.svg"
   inkscape:output_extension="org.inkscape.output.svg.inkscape">
  <metadata
     id="metadata7">
    <rdf:RDF>
      <cc:Work
         rdf:about="">
        <dc:format>image/svg+xml</dc:format>
        <dc:type
           rdf:resource="http://purl.org/dc/dcmitype/StillImage" />
      </cc:Work>
    </rdf:RDF>
  </metadata>
  <sodipodi:namedview
     inkscape:window-height="680"
     inkscape:window-width="640"
     inkscape:pageshadow="2"
     inkscape:pageopacity="0.0"
     guidetolerance="10.0"
     gridtolerance="10.0"
     objecttolerance="10.0"
     borderopacity="1.0"
     bordercolor="#666666"
     pagecolor="#ffffff"
     id="base"
     showgrid="false"
     inkscape:zoom="1.3844977"
     inkscape:cx="198.628"
     inkscape:cy="138.737"
     inkscape:window-x="50"
     inkscape:window-y="26"
     inkscape:current-layer="svg13998" />
  <defs
     id="defs14011">
    <inkscape:perspective
       sodipodi:type="inkscape:persp3d"
       inkscape:vp_x="0 : 0.5 : 1"
       inkscape:vp_y="0 : 1000 : 0"
       inkscape:vp_z="1 : 0.5 : 1"
       inkscape:persp3d-origin="0.5 : 0.33333333 : 1"
       id="perspective9" />
  </defs>
  <desc
     id="desc14000">Matlab Figure Converted by PLOT2SVG written by Juerg Schwizer</desc>
  <polyline
     points="67.354,185.280 68.147,146.752 68.941,111.388 69.734,81.328 70.528,58.340 71.322,43.717 72.115,38.203 72.909,41.963 73.702,54.578 74.496,75.087 75.290,102.056 76.083,133.676 76.877,167.886 77.670,202.501 78.464,235.359 79.258,264.445 80.051,288.023 80.845,304.732 81.638,313.668 82.432,314.427 83.226,307.125 84.019,292.375 84.813,271.244 85.606,245.176 86.400,215.892 87.194,185.280 87.987,155.275 88.781,127.733 89.574,104.322 90.368,86.419 91.162,75.030 91.955,70.737 92.749,73.665 93.542,83.490 94.336,99.462 95.130,120.465 95.923,145.091 96.717,171.733 97.510,198.692 98.304,224.281 99.098,246.934 99.891,265.296 100.685,278.310 101.478,285.269 102.272,285.860 103.066,280.173 103.859,268.685 104.653,252.229 105.446,231.927 106.240,209.120 107.034,185.280 107.827,161.912 108.621,140.462 109.414,122.230 110.208,108.287 111.002,99.418 111.795,96.074 112.589,98.354 113.382,106.005 114.176,118.445 114.970,134.802 115.763,153.981 116.557,174.730 117.350,195.725 118.144,215.654 118.938,233.296 119.731,247.597 120.525,257.731 121.318,263.151 122.112,263.612 122.906,259.182 123.699,250.236 124.493,237.420 125.286,221.609 126.080,203.847 126.874,185.280 127.667,167.081 128.461,150.376 129.254,136.176 130.048,125.318 130.842,118.410 131.635,115.806 132.429,117.582 133.222,123.541 134.016,133.229 134.810,145.968 135.603,160.904 136.397,177.063 137.190,193.415 137.984,208.935 138.778,222.675 139.571,233.812 140.365,241.705 141.158,245.926 141.952,246.285 142.746,242.835 143.539,235.868 144.333,225.887 145.126,213.573 145.920,199.740 146.714,185.280 147.507,171.106 148.301,158.097 149.094,147.038 149.888,138.581 150.682,133.202 151.475,131.174 152.269,132.557 153.062,137.198 153.856,144.742 154.650,154.664 155.443,166.296 156.237,178.881 157.030,191.615 157.824,203.703 158.618,214.403 159.411,223.077 160.205,229.224 160.998,232.511 161.792,232.791 162.586,230.104 163.379,224.678 164.173,216.904 164.966,207.314 165.760,196.541 166.554,185.280 167.347,174.242 168.141,164.110 168.934,155.497 169.728,148.911 170.522,144.721 171.315,143.142 172.109,144.219 172.902,147.833 173.696,153.709 174.490,161.436 175.283,170.495 176.077,180.296 176.870,190.214 177.664,199.628 178.458,207.961 179.251,214.716 180.045,219.504 180.838,222.064 181.632,222.281 182.426,220.189 183.219,215.963 184.013,209.909 184.806,202.440 185.600,194.050 186.394,185.280 187.187,176.683 187.981,168.792 188.774,162.085 189.568,156.956 190.362,153.693 191.155,152.463 191.949,153.302 192.742,156.117 193.536,160.693 194.330,166.710 195.123,173.766 195.917,181.399 196.710,189.123 197.504,196.454 198.298,202.944 199.091,208.205 199.885,211.933 200.678,213.927 201.472,214.097 202.266,212.467 203.059,209.176 203.853,204.461 204.646,198.645 205.440,192.110 206.234,185.280 207.027,178.585 207.821,172.439 208.614,167.216 209.408,163.221 210.202,160.680 210.995,159.722 211.789,160.375 212.582,162.567 213.376,166.131 214.170,170.818 214.963,176.313 215.757,182.257 216.550,188.273 217.344,193.982 218.138,199.037 218.931,203.134 219.725,206.038 220.518,207.590 221.312,207.722 222.106,206.453 222.899,203.890 223.693,200.218 224.486,195.688 225.280,190.600 226.074,185.280 226.867,180.066 227.661,175.280 228.454,171.212 229.248,168.101 230.042,166.122 230.835,165.375 231.629,165.884 232.422,167.591 233.216,170.367 234.010,174.017 234.803,178.296 235.597,182.926 236.390,187.611 237.184,192.057 237.978,195.994 238.771,199.185 239.565,201.446 240.358,202.655 241.152,202.758 241.946,201.770 242.739,199.774 243.533,196.914 244.326,193.386 245.120,189.423 245.914,185.280 246.707,181.219 247.501,177.492 248.294,174.324 249.088,171.901 249.882,170.359 250.675,169.778 251.469,170.175 252.262,171.504 253.056,173.666 253.850,176.508 254.643,179.841 255.437,183.447 256.230,187.095 257.024,190.558 257.818,193.624 258.611,196.109 259.405,197.870 260.198,198.812 260.992,198.892 261.786,198.122 262.579,196.568 263.373,194.341 264.166,191.593 264.960,188.506 265.754,185.280 266.547,182.117 267.341,179.215 268.134,176.747 268.928,174.860 269.722,173.660 270.515,173.207 271.309,173.516 272.102,174.551 272.896,176.235 273.690,178.449 274.483,181.044 275.277,183.852 276.070,186.694 276.864,189.391 277.658,191.778 278.451,193.714 279.245,195.085 280.038,195.819 280.832,195.881 281.626,195.282 282.419,194.071 283.213,192.336 284.006,190.197 284.800,187.793 285.594,185.280 286.387,182.817 287.181,180.556 287.974,178.635 288.768,177.165 289.562,176.230 290.355,175.878 291.149,176.118 291.942,176.925 292.736,178.236 293.530,179.960 294.323,181.981 295.117,184.168 295.910,186.381 296.704,188.481 297.498,190.341 298.291,191.848 299.085,192.916 299.878,193.488 300.672,193.536 301.466,193.069 302.259,192.126 303.053,190.776 303.846,189.109 304.640,187.237 305.434,185.280 306.227,183.362 307.021,181.601 307.814,180.105 308.608,178.960 309.402,178.232 310.195,177.957 310.989,178.145 311.782,178.773 312.576,179.794 313.370,181.137 314.163,182.711 314.957,184.414 315.750,186.137 316.544,187.773 317.338,189.221 318.131,190.395 318.925,191.227 319.718,191.672 320.512,191.710 321.306,191.346 322.099,190.612 322.893,189.560 323.686,188.262 324.480,186.804 325.274,185.280 326.067,183.786 326.861,182.415 327.654,181.249 328.448,180.358 329.242,179.791 330.035,179.577 330.829,179.723 331.622,180.212 332.416,181.007 333.210,182.053 334.003,183.279 334.797,184.606 335.590,185.948 336.384,187.222 337.178,188.350 337.971,189.264 338.765,189.912 339.558,190.258 340.352,190.288 341.146,190.004 341.939,189.433 342.733,188.613 343.526,187.602 344.320,186.467 345.114,185.280 345.907,184.117 346.701,183.049 347.494,182.141 348.288,181.447 349.082,181.005 349.875,180.839 350.669,180.952 351.462,181.333 352.256,181.952 353.050,182.767 353.843,183.722 354.637,184.755 355.430,185.800 356.224,186.792 357.018,187.671 357.811,188.383 358.605,188.887 359.398,189.157 360.192,189.180 360.986,188.959 361.779,188.514 362.573,187.876 363.366,187.089 364.160,186.204 364.954,185.280 365.747,184.374 366.541,183.542 367.334,182.835 368.128,182.295 368.922,181.951 369.715,181.821 370.509,181.910 371.302,182.206 372.096,182.689 372.890,183.323 373.683,184.066 374.477,184.871 375.270,185.685 376.064,186.458 376.858,187.142 377.651,187.696 378.445,188.089 379.238,188.299 380.032,188.317 380.826,188.146 381.619,187.799 382.413,187.302 383.206,186.689 384.000,186.000 384.794,185.280 385.587,184.574 386.381,183.927 387.174,183.376 387.968,182.955 388.762,182.687 389.555,182.586 390.349,182.655 391.142,182.886 391.936,183.262 392.730,183.756 393.523,184.335 394.317,184.961 395.110,185.595 395.904,186.197 396.698,186.730 397.491,187.162 398.285,187.468 399.078,187.632 399.872,187.645 400.666,187.512 401.459,187.242 402.253,186.854 403.046,186.377 403.840,185.841 404.634,185.280 405.427,184.730 406.221,184.226 407.014,183.797 407.808,183.469 408.602,183.261 409.395,183.182 410.189,183.236 410.982,183.416 411.776,183.708 412.570,184.093 413.363,184.544 414.157,185.032 414.950,185.526 415.744,185.994 416.538,186.409 417.331,186.746 418.125,186.984 418.918,187.111 419.712,187.122 420.506,187.018 421.299,186.808 422.093,186.506 422.886,186.134 423.680,185.717 424.474,185.280 425.267,184.852 426.061,184.459 426.854,184.125 427.648,183.870 428.442,183.707 429.235,183.646 430.029,183.688 430.822,183.828 431.616,184.056 432.410,184.355 433.203,184.707 433.997,185.087 434.790,185.471 435.584,185.836 436.378,186.159 437.171,186.421 437.965,186.607 438.758,186.706 439.552,186.715 440.346,186.634 441.139,186.470 441.933,186.235 442.726,185.945 443.520,185.620 444.314,185.280 445.107,184.947 445.901,184.641 446.694,184.381 447.488,184.182 448.282,184.055 449.075,184.008 449.869,184.040 450.662,184.149 451.456,184.327 452.250,184.560 453.043,184.834 453.837,185.130 454.630,185.429 455.424,185.713 456.218,185.965 457.011,186.169 457.805,186.313 458.598,186.391 459.392,186.397 460.186,186.334 460.979,186.207 461.773,186.024 462.566,185.798 463.360,185.545 "
     id="polyline14008"
     style="fill:none;stroke:#000000;stroke-width:1.25;stroke-miterlimit:4;stroke-dasharray:none"
     transform="translate(-66.729,-37.578)" />
</svg>
